<svg width="20" height="20" fill="none" xmlns="http://www.w3.org/2000/svg"><g clip-path="url(#prefix__clip0)" fill="#858BB2"><path d="M13.545 6.455c-.9-.9-2.17-1.481-3.545-1.481a4.934 4.934 0 00-3.545 1.481c-.9.9-1.482 2.17-1.482 3.545 0 1.376.582 2.646 1.482 3.545.9.9 2.169 1.482 3.545 1.482a4.934 4.934 0 003.545-1.482c.899-.9 1.481-2.17 1.481-3.545a4.934 4.934 0 00-1.481-3.545zM10 3.413a.7.7 0 00.688-.688V.688A.7.7 0 0010 0a.7.7 0 00-.688.688v2.037a.7.7 0 00.688.688zM15.635 5.344L17.09 3.89a.67.67 0 000-.952.67.67 0 00-.953 0l-1.455 1.455a.67.67 0 000 .952c.238.265.662.265.953 0zM19.312 9.312h-2.037a.7.7 0 00-.688.688.7.7 0 00.688.688h2.037A.7.7 0 0020 10a.7.7 0 00-.688-.688zM15.608 14.656a.67.67 0 00-.952 0 .67.67 0 000 .953l1.455 1.455a.67.67 0 00.952 0 .67.67 0 000-.953l-1.455-1.455zM10 16.587a.7.7 0 00-.688.688v2.037A.7.7 0 0010 20a.7.7 0 00.688-.688v-2.037a.7.7 0 00-.688-.688zM4.365 14.656L2.91 16.111a.67.67 0 000 .953.67.67 0 00.952 0l1.455-1.455a.67.67 0 000-.953c-.238-.264-.661-.264-.952 0zM3.413 10a.7.7 0 00-.688-.688H.688A.7.7 0 000 10a.7.7 0 00.688.688h2.037A.7.7 0 003.413 10zM4.365 5.344a.67.67 0 00.952 0 .67.67 0 000-.952L3.862 2.937a.67.67 0 00-.952 0 .67.67 0 000 .952l1.455 1.455z"/></g><defs><clipPath id="prefix__clip0"><path fill="#fff" d="M0 0h20v20H0z"/></clipPath></defs></svg>