<svg width="242" height="200" fill="none" xmlns="http://www.w3.org/2000/svg"><path d="M31.136 83.879l85.035-53.67 85.036 53.67v78.304H31.136V83.879z" fill="#E6E7E8"/><path fill-rule="evenodd" clip-rule="evenodd" d="M30.742 162.183c0 .218.176.394.394.394h170.071a.395.395 0 00.425-.354V83.918a.387.387 0 00-.189-.33L116.376 29.91a.401.401 0 00-.417 0L30.923 83.549a.378.378 0 00-.18.33v78.304zm170.11-.393H31.506V84.1l84.665-53.402 84.681 53.401v77.691z" fill="#231F20"/><path d="M136.887 62.8c2.827-4.666 3.544-10.339 3.284-15.784a38.423 38.423 0 00-4.592-17.034 15.388 15.388 0 00-4.915-5.634c-2.552-1.574-4.292-.511-6.789-.936-2.111-.362-4.317-1.865-6.656-2.25a21.632 21.632 0 00-15.517 3.241C93.7 29.81 90.005 40.14 81.735 45.16c-8.105 4.895-18.478 3.423-27.568 6.13a30.729 30.729 0 00-10.523 5.555 18.344 18.344 0 00-5.151 6.145c-2.135 4.453-1.576 9.756 0 14.454 1.575 4.83 4.237 9.442 8.365 12.44 3.458 2.494 7.703 3.642 11.901 4.398 5.71 1.03 11.626 1.416 17.329.18a25.263 25.263 0 0011.397-5.538c1.402-1.252 2.174-2.959 3.481-4.202 1.804-1.708 4.616-2.754 6.727-4.06 3.3-2.054 6.608-4.241 10.373-5.217 9.563-2.486 23.055-3.163 28.821-12.644z" fill="#fff"/><path fill-rule="evenodd" clip-rule="evenodd" d="M58.672 94.666c3.232.611 6.51.932 9.799.96 2.582.03 5.16-.22 7.688-.747a25.476 25.476 0 0011.61-5.681 13.172 13.172 0 001.906-2.266 13.44 13.44 0 011.575-1.944 18.65 18.65 0 014.261-2.698 46.917 46.917 0 002.403-1.322l.787-.512.065-.04c2.965-1.844 6.017-3.743 9.387-4.61 1.807-.472 3.735-.865 5.778-1.282l.311-.063c8.554-1.747 18.226-3.722 22.952-11.448 2.552-4.178 3.647-9.529 3.34-15.98a38.525 38.525 0 00-4.64-17.2 15.497 15.497 0 00-5.041-5.752 6.748 6.748 0 00-4.505-.937 10.39 10.39 0 01-2.41-.055 15.033 15.033 0 01-3.064-1.046 15.687 15.687 0 00-3.624-1.244 21.987 21.987 0 00-15.753 3.329c-3.906 2.66-6.837 6.507-9.664 10.228l-.028.037c-2.977 3.915-6.05 7.958-10.259 10.499-4.836 2.92-10.39 3.533-16.265 4.178-3.786.309-7.536.95-11.208 1.92a31.037 31.037 0 00-10.642 5.618 18.409 18.409 0 00-5.245 6.294c-2.419 4.989-1.347 10.788-.056 14.722 1.812 5.508 4.734 9.89 8.491 12.589 3.758 2.699 8.412 3.8 12.051 4.453zm43.235-69.9a20.958 20.958 0 0111.72-3.51c1.202.01 2.401.12 3.584.33a15.21 15.21 0 013.434 1.157 15.09 15.09 0 003.214 1.094 11.5 11.5 0 002.576.07 5.98 5.98 0 014.087.787 14.887 14.887 0 014.789 5.508 37.737 37.737 0 014.545 16.877c.299 6.31-.787 11.55-3.229 15.58-4.537 7.459-14.068 9.402-22.488 11.11-2.182.44-4.198.857-6.12 1.353-3.486.884-6.591 2.82-9.593 4.69l-.048.03-.835.52c-.732.448-1.52.858-2.363 1.29a19.206 19.206 0 00-4.426 2.817 13.804 13.804 0 00-1.678 2.046c-.52.78-1.124 1.501-1.804 2.148a24.742 24.742 0 01-11.279 5.508c-4.923 1.07-10.53 1.007-17.163-.181-3.56-.645-8.144-1.74-11.76-4.344-3.615-2.604-6.458-6.837-8.223-12.258-1.268-3.816-2.284-9.395 0-14.163a17.802 17.802 0 015.057-6.02 30.382 30.382 0 0110.397-5.507 63.147 63.147 0 0111.075-1.888l.053-.006c5.663-.628 11.533-1.279 16.487-4.275 4.33-2.606 7.453-6.717 10.472-10.69l.02-.026.04-.054c2.784-3.658 5.657-7.433 9.459-9.994z" fill="#231F20"/><path d="M169.023 55.09l-4.143 15.578 9.979 1.778 5.687-20.811s-8.869-6.782-10.239-6.83c-1.371-.047-1.284 10.284-1.284 10.284z" fill="#fff"/><path fill-rule="evenodd" clip-rule="evenodd" d="M174.789 72.84h.07a.387.387 0 00.363-.268l5.695-20.811a.402.402 0 00-.142-.417c-1.505-1.141-9.05-6.861-10.46-6.908a.677.677 0 00-.52.212c-1.166 1.125-1.166 8.773-1.166 10.441l-4.111 15.508a.387.387 0 00.307.488l9.964 1.755zm-.197-.842l-9.184-1.62 4.032-15.163a.35.35 0 000-.102c-.031-4.407.315-9.497.875-9.914.756.023 5.529 3.344 9.79 6.586l-5.513 20.213z" fill="#231F20"/><path d="M158.24 44.9s1.41 3.147 3.442 3.659c2.032.511 6.451-1.668 6.963-1.385.512.283 12.169 9.001 13.303 9.26 1.135.26 3.222-2.486 4.112-5.751 0 0-11.342-7.727-12.083-8.545-.74-.818-1.622-5.712-2.725-7.506L158.24 44.9z" fill="#fff"/><path fill-rule="evenodd" clip-rule="evenodd" d="M181.822 56.852c.082.007.163.007.245 0 1.535 0 3.544-3.132 4.355-5.996a.377.377 0 00-.157-.425c-4.545-3.1-11.492-7.915-12.012-8.49-.485-.972-.85-2-1.087-3.06a21.391 21.391 0 00-1.575-4.383.425.425 0 00-.268-.181.411.411 0 00-.315.079l-12.989 10.228a.378.378 0 00-.11.465l.004.009c.107.227 1.544 3.305 3.698 3.877 1.363.36 3.598-.377 5.242-.919l.028-.009c.187-.065.389-.145.584-.222.462-.181.886-.348.991-.282.149.095 1.362.968 2.757 1.991 6.183 4.509 9.9 7.145 10.609 7.318zm-12.988-10.024a.656.656 0 00-.323-.071c-.657.078-1.3.242-1.914.488l-.017.005c-1.458.48-3.658 1.205-4.803.907-1.473-.37-2.663-2.407-3.049-3.147l12.374-9.78c.52 1.234.949 2.504 1.284 3.8.528 1.794.867 2.927 1.268 3.368.709.794 10.004 7.152 11.918 8.45-.953 3.234-2.828 5.406-3.568 5.209-.635-.169-5.446-3.656-8.794-6.082l-1.533-1.11-.603-.438c-1.431-1.04-2.094-1.523-2.24-1.6z" fill="#231F20"/><path d="M170.638 37.567a4.222 4.222 0 00.449 2.415c.638 1.141 3.465 2.66 3.465 2.66l1.97-3.934-3.86-2.786-2.024 1.645z" fill="#231F20"/><path fill-rule="evenodd" clip-rule="evenodd" d="M174.371 42.988a.363.363 0 00.181.047.303.303 0 00.118-.031.393.393 0 00.237-.197l1.969-3.934a.394.394 0 00-.126-.488l-3.852-2.785a.394.394 0 00-.488 0l-2.024 1.668a.374.374 0 00-.134.244 4.61 4.61 0 00.496 2.66c.669 1.203 3.316 2.659 3.623 2.816zm-2.938-3.195a3.804 3.804 0 01-.417-2.014l1.662-1.377 3.339 2.416-1.63 3.289c-.914-.527-2.544-1.527-2.954-2.314z" fill="#231F20"/><path d="M182.988 48.598s1.032-3.25-.788-3.478a1.672 1.672 0 00-2.52-1.338s-.583-2.415-2.489-1.927-3.418 5.043-3.151 6.192c.268 1.149 1.749.449 2.497-.63 0 0-.969 1.795-.323 2.267.945.692 1.938-.535 2.741-1.432 0 0-1.189 2.1.56 2.29 1.346.149 2.599-2.566 2.599-2.566l.874.622z" fill="#fff"/><path fill-rule="evenodd" clip-rule="evenodd" d="M179.436 50.943h.149c1.206 0 2.214-1.59 2.592-2.392l.535.37c.105.07.236.087.355.047a.371.371 0 00.244-.252c.095-.228.701-2.219 0-3.313a1.455 1.455 0 00-.827-.621 2.36 2.36 0 00-1.008-1.424 1.988 1.988 0 00-1.576-.095 3.222 3.222 0 00-1.213-1.573 2.025 2.025 0 00-1.622-.205c-2.174.559-3.741 5.327-3.45 6.657.062.437.394.787.827.873a1.71 1.71 0 001.142-.244c-.128.446.01.925.355 1.235.779.575 1.535.213 2.189-.362a1.308 1.308 0 001.308 1.299zm-.284-3.006a.37.37 0 00-.236-.079.404.404 0 00-.292.126l-.165.189c-.851.944-1.504 1.59-2.056 1.188-.181-.134.04-.983.441-1.77a.4.4 0 00-.141-.52.394.394 0 00-.528.11 2.168 2.168 0 01-1.575 1.047c-.056-.008-.158-.031-.213-.275-.213-1 1.197-5.296 2.875-5.72a1.277 1.277 0 011.016.11c.493.382.843.92.992 1.526a.41.41 0 00.213.26.402.402 0 00.331 0c.396-.23.875-.264 1.299-.095.366.271.61.676.678 1.126a.401.401 0 00.339.338c.22.016.42.132.543.315.258.683.283 1.433.071 2.132l-.441-.307a.38.38 0 00-.331-.055.401.401 0 00-.252.212c-.37.787-1.41 2.447-2.198 2.36-.433-.046-.543-.22-.543-.275-.189-.37.11-1.125.283-1.432a.401.401 0 00-.11-.511z" fill="#231F20"/><path d="M174.568 38.85s-1.079-1.873-2.213-.229c-1.134 1.645-2.497 4.72-.607 5.051 1.891.33 3.308-3.194 2.82-4.823z" fill="#fff"/><path fill-rule="evenodd" clip-rule="evenodd" d="M171.685 44.074c.103.007.205.007.308 0a2.362 2.362 0 001.732-.882 5.501 5.501 0 001.221-4.445l-.039-.087-.004-.005c-.078-.129-.648-1.058-1.501-1.096a1.631 1.631 0 00-1.37.85c-.811 1.164-2.032 3.5-1.481 4.815.199.465.632.79 1.134.85zm.993-5.248c.157-.229.409-.504.669-.504h.016c.355.016.709.464.835.669a4.764 4.764 0 01-1.063 3.659 1.523 1.523 0 01-1.324.621.637.637 0 01-.535-.378c-.331-.794.449-2.69 1.402-4.068z" fill="#231F20"/><path d="M169.015 56.143s-1.244-5.94-1.363-7.002c-.196-1.802.229-4.619 1.812-5.06 1.583-.44 5.206-.857 4.608.732-.544 1.448-3.718 1.723-3.718 1.723s2.19 2.203 1.859 4.399" fill="#fff"/><path d="M169.015 56.537a.394.394 0 01-.386-.307c-.047-.244-1.244-5.98-1.363-7.081-.204-1.842.189-4.95 2.096-5.508.992-.276 4.025-.842 4.915.126.274.305.339.745.165 1.117-.449 1.212-2.261 1.692-3.308 1.88.661.835 1.725 2.48 1.465 4.163a.398.398 0 01-.788-.118c.3-1.975-1.725-4.044-1.74-4.06a.409.409 0 01-.095-.417.394.394 0 01.339-.252c.787-.07 3.009-.472 3.379-1.471.086-.213 0-.276 0-.307-.418-.464-2.6-.323-4.128.094-1.283.354-1.709 2.92-1.52 4.635.118 1.03 1.347 6.916 1.355 6.97a.387.387 0 01-.307.464l-.079.072z" fill="#231F20"/><path d="M192.275 33.617s-13.123-1.298-18.479 1.802a34.412 34.412 0 00-3.859 2.675c-2.907 2.274-5.64 4.855-7.767 6.294-4.221 2.833-8.301 3.407-11.082-1.101-2.363-3.848-.984-5.673 2.213-9.096 1.576-1.692 4.915-4.485 7.79-7.577a24.324 24.324 0 004.254-5.822c2.426-5.099 1.74-12.912 1.74-12.912l25.19 25.737z" fill="#fff"/><path fill-rule="evenodd" clip-rule="evenodd" d="M155.011 46.843a5.5 5.5 0 001.26.134c1.804 0 3.852-.755 6.136-2.266a53.254 53.254 0 004.332-3.446 110.761 110.761 0 013.458-2.849 33.706 33.706 0 013.812-2.643c4.906-2.853 16.749-1.884 18.114-1.773l.128.01a.402.402 0 00.394-.228.393.393 0 00-.071-.44L167.369 7.58a.386.386 0 00-.449-.087.401.401 0 00-.228.394c.007.078.661 7.79-1.702 12.746a23.686 23.686 0 01-4.182 5.72c-1.662 1.747-3.434 3.431-5.01 4.895-1.134 1.046-2.111 1.959-2.788 2.683-3.229 3.462-4.797 5.452-2.253 9.575a6.725 6.725 0 004.254 3.336zm10.696-25.87c1.922-4.084 1.93-9.733 1.835-12.094l23.74 24.29c-3.261-.245-13.091-.701-17.651 1.95a34.812 34.812 0 00-3.938 2.715 110.773 110.773 0 00-3.013 2.47l-.469.394a50.725 50.725 0 01-4.261 3.383c-2.623 1.755-4.899 2.44-6.774 2.03a6.015 6.015 0 01-3.749-2.99c-2.253-3.674-.993-5.31 2.158-8.654.64-.685 1.588-1.566 2.676-2.577l.073-.067.029-.027c1.576-1.465 3.352-3.116 5.02-4.906a24.738 24.738 0 004.324-5.917z" fill="#231F20"/><path d="M170.638 37.567c-2.907 2.274-6.42 5.287-8.468 6.813-4.678 3.494-7.64 3.864-10.696-.456-3.151-4.438-1.37-6.294 1.827-9.725 1.576-1.692 4.915-4.485 7.79-7.577 0 0 .182 3.218 3.387 7.144a11.171 11.171 0 006.16 3.8z" fill="#231F20"/><path fill-rule="evenodd" clip-rule="evenodd" d="M155.515 47.418c.239.038.482.057.724.055 1.686 0 3.655-.881 6.168-2.778 1.034-.77 2.43-1.914 3.928-3.142l.333-.272.509-.416a231.702 231.702 0 013.705-2.984.426.426 0 00.142-.409.41.41 0 00-.315-.29 10.872 10.872 0 01-5.924-3.667c-3.071-3.77-3.3-6.917-3.3-6.917a.394.394 0 00-.26-.346.377.377 0 00-.417.103c-1.662 1.746-3.434 3.43-5.01 4.893l-.273.253c-1.018.938-1.896 1.747-2.554 2.47l-.011.012c-3.192 3.423-5.121 5.493-1.809 10.17 1.402 1.982 2.788 3.02 4.364 3.265zm.819-15.595c1.41-1.306 2.985-2.77 4.489-4.343a15.746 15.746 0 003.348 6.53 11.706 11.706 0 005.592 3.745 317.35 317.35 0 00-3.591 2.92l-.891.73c-1.278 1.052-2.456 2.02-3.347 2.66-2.733 2.039-4.671 2.826-6.301 2.574-1.347-.213-2.568-1.149-3.836-2.943-2.93-4.151-1.371-5.83 1.763-9.202l.025-.027c.639-.685 1.588-1.566 2.676-2.577l.073-.067z" fill="#231F20"/><path d="M195.913 32.507c-2.937 2.636-9.451.44-15.792-4.917a45.403 45.403 0 01-4.568-4.438 45.61 45.61 0 01-3.844-4.933c-4.726-6.94-6.199-13.66-3.237-16.311 3.654-3.281 12.775.905 20.36 9.355 7.586 8.45 10.752 17.955 7.081 21.244z" fill="#7C5DFA"/><path fill-rule="evenodd" clip-rule="evenodd" d="M167.92 1.333a5.58 5.58 0 013.852-1.321c4.852 0 11.752 4.21 17.628 10.693a38.538 38.538 0 017.931 12.833c1.473 4.327 1.135 7.71-.89 9.52a5.579 5.579 0 01-3.883 1.353c-3.521 0-8.247-2.281-12.973-6.216a47.818 47.818 0 01-8.553-9.552c-5.065-7.474-6.317-14.438-3.112-17.31zm20.889 9.938C182.98 4.78 176.238.798 171.772.798a4.838 4.838 0 00-3.3 1.11c-2.962 2.651-1.489 9.37 3.237 16.31a45.51 45.51 0 003.828 4.942 45.403 45.403 0 004.568 4.438c4.545 3.824 9.137 6.035 12.469 6.035a4.833 4.833 0 003.324-1.118c3.686-3.289.504-12.794-7.089-21.244z" fill="#231F20"/><path d="M185.359 21.043l-5.238 6.547a45.403 45.403 0 01-4.568-4.438 45.62 45.62 0 01-3.844-4.933l7.577-4.65 6.073 7.474z" fill="#fff"/><ellipse cx="182.308" cy="17.334" rx="2.244" ry="4.817" transform="rotate(-39.4 182.308 17.334)" fill="#231F20"/><path fill-rule="evenodd" clip-rule="evenodd" d="M180.255 18.99c1.394 1.7 3.064 2.699 4.301 2.699a1.66 1.66 0 001.031-.339c1.142-.944.583-3.446-1.276-5.704a8.659 8.659 0 00-2.78-2.353c-1.056-.472-1.953-.48-2.544 0s-.756 1.37-.465 2.502a8.794 8.794 0 001.733 3.195zm-.772-5.091a.884.884 0 01.575-.173c.385.024.761.129 1.103.307a8.006 8.006 0 012.56 2.109c1.654 2.014 2.055 4.036 1.378 4.595-.677.558-2.584-.229-4.238-2.243a7.883 7.883 0 01-1.575-2.895c-.205-.803-.134-1.425.197-1.7z" fill="#231F20"/><path d="M178.916 48.645a.37.37 0 01-.197-.055.387.387 0 01-.142-.535 9.544 9.544 0 011.796-2.148.394.394 0 11.504.598 9.17 9.17 0 00-1.575 1.951.402.402 0 01-.386.19zm-2.418-.834h-.063a.394.394 0 01-.307-.464 5.007 5.007 0 011.882-2.801.394.394 0 01.473.63 4.273 4.273 0 00-1.576 2.32.401.401 0 01-.409.315zm5.576.559a.39.39 0 01-.382-.326.392.392 0 01.067-.296l.536-.787a.41.41 0 01.551-.094.401.401 0 01.095.55l-.544.787a.377.377 0 01-.323.166z" fill="#231F20"/><path d="M157.216 46.678a.386.386 0 01-.236-.079c-3.482-2.643-5.64-5.854-6.065-9.032v-.087a.393.393 0 01.173-.448.387.387 0 01.544.125c.046.096.073.2.078.307.402 2.974 2.442 5.996 5.766 8.506a.393.393 0 01-.244.708h-.016zM155.27 34.12a.378.378 0 01-.283-.133.386.386 0 010-.551l4.238-3.934a.377.377 0 01.551 0 .386.386 0 010 .55l-4.238 3.934a.379.379 0 01-.268.134zm.583.945a.425.425 0 01-.291-.126.401.401 0 010-.56l4.238-3.933a.391.391 0 11.551.559l-4.23 3.934a.418.418 0 01-.268.126zm.67 1.085a.363.363 0 01-.284-.125.385.385 0 010-.551l4.238-3.934a.378.378 0 01.551 0 .386.386 0 010 .55l-4.237 3.934a.37.37 0 01-.268.126z" fill="#fff"/><path d="M86.422 96.838l-1.977 43.606s26.977.322 42.494-6.153a101.665 101.665 0 014.6-12.188c2.276-4.595 12.051-11.37 8.979-28.963 0 0 23.031 14.556 29.521 7.868 6.49-6.688 9.736-37.925 9.736-37.925l-13.485-4.327-6.128 19.261s-38.863-18.781-47.921-21.157c-3.363-.882-13.816 4.673-25.796 12.36" fill="#7C5DFA"/><path d="M111.406 69.936s6.246 19.388 7.317 27.594c1.072 8.207 1.229 21.772 1.229 21.772s9.885-30.246 8.664-48.925l-17.21-.44z" fill="#231F20"/><path fill-rule="evenodd" clip-rule="evenodd" d="M119.905 119.656h.047a.347.347 0 00.339-.244c.094-.276 9.885-30.529 8.664-49.059a.339.339 0 00-.339-.322l-17.202-.44a.353.353 0 00-.339.456l.002.005c.138.43 6.251 19.495 7.3 27.533 1.055 8.089 1.228 21.599 1.228 21.732.003.172.13.315.3.339zm-.835-22.173c-.969-7.435-6.23-24.179-7.184-27.184l16.399.432c.914 15.603-5.875 39.341-8.026 46.423-.094-4.163-.401-13.486-1.189-19.67z" fill="#231F20"/><path d="M79.94 163.592h74.44l-27.418-29.301-42.494 6.153s-5.088 11.503-4.608 19.576c.032.952.055 2.171.08 3.572z" fill="#231F20"/><path fill-rule="evenodd" clip-rule="evenodd" d="M79.94 163.985h74.447a.395.395 0 00.292-.661l-27.418-29.301a.413.413 0 00-.347-.126l-42.533 6.153a.41.41 0 00-.3.228c-.212.48-5.12 11.685-4.639 19.765.055.968.102 2.235.102 3.557a.385.385 0 00.394.385zm73.527-.787H80.341c0-1.09-.046-2.128-.085-2.978l-.01-.224c-.44-7.31 3.82-17.625 4.49-19.198l42.077-6.09 26.654 28.49z" fill="#231F20"/><path d="M126.474 59.511l2.134 10.866s.056 6.295-6.923 5.689a13.92 13.92 0 01-10.279-6.13l-2.828-18.978a34.275 34.275 0 00-.835-10.3c8.027-1.66 13.209-8.922 13.209-8.922s3.553 3.62 5.002 4.721a16.547 16.547 0 013.151 2.81c1.52 1.88 1.969 4.508 2.363 6.829.495 2.755.74 5.549.732 8.348-.126 5.311-5.726 5.067-5.726 5.067z" fill="#fff"/><path fill-rule="evenodd" clip-rule="evenodd" d="M121.653 76.467h.938a6.305 6.305 0 004.387-1.48 6.622 6.622 0 001.922-4.626l-2.056-10.44a6.62 6.62 0 004.072-1.574 5.183 5.183 0 001.576-3.872c.008-2.82-.24-5.635-.741-8.41-.378-2.275-.858-5.013-2.434-6.995a16.935 16.935 0 00-3.15-2.865c-1.062-.795-3.298-3.02-4.372-4.087a16.284 16.284 0 00-.598-.586.34.34 0 00-.284-.11.371.371 0 00-.268.15c-.047.07-5.19 7.206-12.98 8.78a.366.366 0 00-.229.157.325.325 0 00-.047.268 31.919 31.919 0 01.835 9.332 4.732 4.732 0 000 .952c.008.094 2.828 18.978 2.828 18.978a.426.426 0 00.047.133 14.179 14.179 0 0010.554 6.295zm.063-.755a13.691 13.691 0 01-9.963-5.901c-2.797-18.719-2.765-18.916-2.765-18.916a4.921 4.921 0 010-.786 31.896 31.896 0 00-.788-9.167c6.971-1.574 11.689-7.2 12.815-8.655.859.897 3.498 3.525 4.726 4.446a16.46 16.46 0 013.049 2.746c1.451 1.77 1.873 4.244 2.249 6.452l.035.204c.494 2.734.74 5.507.732 8.285a4.536 4.536 0 01-1.315 3.352 6.157 6.157 0 01-4.001 1.377.34.34 0 00-.292.126.397.397 0 00-.079.307l2.127 10.795a5.992 5.992 0 01-1.701 4.037c-1.127 1.038-2.749 1.47-4.829 1.298z" fill="#231F20"/><path d="M127.427 64.862s-4.38 1.03-7.782-1.37c-3.403-2.4-3.545-5.444-3.545-5.444s5.388 2.29 10.374 1.463l.953 5.35z" fill="#231F20"/><path fill-rule="evenodd" clip-rule="evenodd" d="M119.448 63.776a9.847 9.847 0 005.687 1.66c.807.011 1.613-.068 2.402-.236a.346.346 0 00.268-.401l-.961-5.35a.346.346 0 00-.394-.284c-4.426.737-9.263-1.093-10.068-1.398a1.82 1.82 0 00-.116-.042.332.332 0 00-.331.04.324.324 0 00-.15.298c0 .173.158 3.242 3.663 5.713zm.425-.567a7.919 7.919 0 01-3.3-4.619c1.465.551 5.592 1.873 9.649 1.314l.835 4.682c-1.048.197-4.466.543-7.184-1.377z" fill="#231F20"/><path d="M120.661 40.981s4.497 4.564 3.836 5.626c-.662 1.062-3.104.913-3.104.913" fill="#fff"/><path d="M121.772 47.874h-.402a.344.344 0 01-.323-.37.354.354 0 01.37-.33c.622 0 2.363 0 2.789-.74.267-.44-1.497-2.872-3.789-5.2a.347.347 0 11.496-.489c1.41 1.432 4.608 4.887 3.883 6.059-.598.952-2.245 1.07-3.024 1.07z" fill="#231F20"/><ellipse cx="126.624" cy="42.344" rx=".614" ry="1.149" transform="rotate(-13.01 126.624 42.344)" fill="#231F20"/><ellipse cx="116.589" cy="43.362" rx=".614" ry="1.149" transform="rotate(-13.01 116.589 43.362)" fill="#231F20"/><path d="M111.154 44.695c-1.095-1.77-3.655-2.014-5.443-1.298a3.148 3.148 0 00-2.087 2.848 5.84 5.84 0 00.41 2.259 11.855 11.855 0 002.11 3.69 4.25 4.25 0 001.647 1.322 2.183 2.183 0 002.363-.614" fill="#fff"/><path d="M108.531 54.02a2.38 2.38 0 01-.866-.166 4.718 4.718 0 01-1.796-1.424 12.348 12.348 0 01-2.174-3.8 6.274 6.274 0 01-.433-2.408 3.509 3.509 0 012.315-3.148c1.97-.786 4.726-.472 5.884 1.44a.362.362 0 01-.614.378c-.985-1.574-3.308-1.833-5.002-1.157a2.815 2.815 0 00-1.874 2.526c-.011.726.12 1.448.386 2.124a11.567 11.567 0 002.047 3.58c.393.523.91.94 1.505 1.212.712.25 1.505.041 2.001-.527a.361.361 0 01.642.137.365.365 0 01-.13.367c-.49.528-1.17.84-1.891.865z" fill="#231F20"/><path d="M125.072 48.936l-5.27.512s1.095 8.135 3.466 7.915c2.371-.22 2.379-6.098 1.804-8.427z" fill="#fff"/><path fill-rule="evenodd" clip-rule="evenodd" d="M119.456 49.495c.181 1.393 1.229 8.222 3.71 8.222l.134-.008a1.924 1.924 0 001.402-.881c1.307-1.833 1.157-6.169.709-7.978a.348.348 0 00-.371-.26l-5.277.511a.313.313 0 00-.236.134.304.304 0 00-.071.26zm3.71 7.522c-1.394 0-2.529-4.28-2.97-7.255l4.608-.417c.41 1.983.362 5.626-.669 7.082-.197.32-.526.537-.898.59h-.071z" fill="#231F20"/><path d="M138.257 112.024a.353.353 0 01-.299-.543c.055-.103 5.844-9.828.307-30.08a.37.37 0 01.252-.441.355.355 0 01.441.252c5.632 20.583-.142 30.245-.394 30.686a.35.35 0 01-.307.126z" fill="#231F20"/><path d="M31.136 83.879l85.035 61.285 85.036-61.285v100.54H31.136V83.879z" fill="#fff"/><path fill-rule="evenodd" clip-rule="evenodd" d="M30.742 184.419c0 .217.177.393.394.393h170.071a.402.402 0 00.394-.393V83.879a.386.386 0 00-.221-.346.387.387 0 00-.41 0l-84.799 61.112-84.806-61.112a.386.386 0 00-.41 0 .377.377 0 00-.213.346v100.54zm170.11-.393H31.506V84.65l84.429 60.829a.395.395 0 00.465 0l84.452-60.829v99.376z" fill="#231F20"/><path d="M31.136 184.812a.393.393 0 01-.347-.204.4.4 0 01.15-.535l77.805-44.464a.393.393 0 01.535.15.387.387 0 01-.141.535l-77.813 44.463a.394.394 0 01-.189.055zm170.071 0a.422.422 0 01-.197-.055l-77.805-44.463a.394.394 0 01-.15-.535.402.402 0 01.536-.149l77.805 44.463a.393.393 0 01.149.535.383.383 0 01-.338.204z" fill="#231F20"/><path d="M71.677 138.303s3.442 8.954 4.253 9.442c.811.488 10.397 4.407 9.712 6.24-.686 1.833-5.002-.401-5.002-.401s6.215 7.183 4.576 8.45c-1.638 1.267-7.152 3.84-9.365 2.793-2.213-1.046-13.248-14.705-15.588-20.638" fill="#fff"/><path d="M77.19 165.488a3.527 3.527 0 01-1.496-.283c-2.363-1.125-13.47-14.95-15.793-20.851a.396.396 0 11.74-.283c2.364 6.051 13.47 19.513 15.384 20.457 1.913.944 7.293-1.448 8.963-2.746a.37.37 0 00.118-.259c.15-1.574-3.387-6.035-4.726-7.625a.392.392 0 01-.01-.501.395.395 0 01.49-.105c.788.41 3.041 1.385 4.05 1a.646.646 0 00.401-.394c.189-.511-1.056-1.794-8.074-5.043-.85-.394-1.3-.606-1.48-.724-.85-.543-3.592-7.53-4.411-9.654a.394.394 0 01.228-.512.394.394 0 01.504.228c1.639 4.257 3.624 8.891 4.112 9.285.134.086.709.354 1.378.661 5.656 2.612 9.043 4.54 8.483 6.035-.146.397-.46.711-.858.857a5.105 5.105 0 01-3.15-.362c1.52 1.897 4.032 5.304 3.874 6.924a1.13 1.13 0 01-.417.787c-1.3.984-5.49 3.108-8.31 3.108z" fill="#231F20"/><path d="M86.445 69.252C66.187 82.25 41.55 101.378 39.47 105.847c-3.324 7.081 21.534 42.693 21.534 42.693l13.461-8.529-12.303-26.697 24.26-16.484" fill="#7C5DFA"/><path d="M70.889 107.806a.354.354 0 01-.3-.149.37.37 0 01.087-.504l27.237-19.049a.355.355 0 01.505.087.362.362 0 01-.095.503l-27.23 19.049a.327.327 0 01-.204.063zm118.345 53.984l33.011-20.182-27.97 11.637-5.041 8.545z" fill="#231F20"/><path fill-rule="evenodd" clip-rule="evenodd" d="M188.959 162.065a.381.381 0 00.275.118.45.45 0 00.205-.086l33.034-20.151a.392.392 0 00-.354-.7l-28.001 11.637a.364.364 0 00-.181.165l-5.041 8.537a.392.392 0 00.063.48zm1.417-1.455l4.167-7.082 23.157-9.622-27.324 16.704z" fill="#231F20"/><path d="M194.275 153.245l10.791 5.516 17.179-17.153-27.97 11.637z" fill="#fff"/><path fill-rule="evenodd" clip-rule="evenodd" d="M204.901 159.075c.05.028.107.042.165.04a.332.332 0 00.26-.102l17.179-17.153a.347.347 0 00.047-.449.362.362 0 00-.433-.133l-27.986 11.637a.378.378 0 00-.22.322c-.007.14.07.27.197.331l10.791 5.507zm.094-.755l-9.869-5.036 25.575-10.645-15.706 15.681z" fill="#231F20"/><path d="M222.245 141.608l-35.539 8.482-8.081-4.619 43.62-3.863z" fill="#fff"/><path fill-rule="evenodd" clip-rule="evenodd" d="M186.501 150.397a.34.34 0 00.173.047l.087-.008 35.539-8.474a.362.362 0 00.268-.409.362.362 0 00-.386-.299l-43.62 3.863a.363.363 0 00-.15.669l8.089 4.611zm.229-.7l-6.963-3.974 37.626-3.297-30.663 7.271z" fill="#231F20"/><path d="M186.706 150.09l2.528 11.7 5.041-8.545 27.97-11.637-35.539 8.482z" fill="#fff"/><path fill-rule="evenodd" clip-rule="evenodd" d="M189.179 162.152h.055a.355.355 0 00.339-.181l4.978-8.435 27.836-11.59a.356.356 0 00-.221-.676l-35.539 8.474a.355.355 0 00-.268.425l2.521 11.708a.362.362 0 00.299.275zm.213-1.345l-2.261-10.457 30.837-7.357-23.834 9.914a.4.4 0 00-.174.149l-4.568 7.751z" fill="#231F20"/><path d="M181.948 163.419a.393.393 0 01-.204-.724l1.315-.842a.396.396 0 01.433.661l-1.331.85a.439.439 0 01-.213.055z" fill="#D1D3D4"/><path fill-rule="evenodd" clip-rule="evenodd" d="M22.757 139.777c.063.147.21.24.368.234a.405.405 0 00.316-.142 32.365 32.365 0 012.229-2.179.395.395 0 00-.276-.675.387.387 0 00-.276.116 33.521 33.521 0 00-2.276 2.219.384.384 0 00-.085.427zm-3.57 5.112a.41.41 0 01-.283-.102.387.387 0 01-.095-.543 42.48 42.48 0 011.906-2.541.394.394 0 01.615.495 37.017 37.017 0 00-1.875 2.494.4.4 0 01-.291.197h.023zm-3.434 5.406c.073.027.153.03.229.007l-.024-.007a.404.404 0 00.323-.173 36.62 36.62 0 011.489-2.739.401.401 0 00-.142-.543.388.388 0 00-.536.142 41.864 41.864 0 00-1.52 2.785.395.395 0 00.181.528zm-2.135 5.83a.294.294 0 01-.118 0 .396.396 0 01-.26-.496c.308-.991.67-1.998 1.072-2.99a.394.394 0 01.724.299 42.15 42.15 0 00-1.047 2.927.378.378 0 01-.37.26zm-1.425 6.129h.055a.393.393 0 00.386-.362c.134-1.015.323-2.045.551-3.06a.394.394 0 00-.299-.472.401.401 0 00-.473.299 38.878 38.878 0 00-.559 3.147.4.4 0 00.339.448zm164.321 4.383a.394.394 0 01-.197-.732 270.153 270.153 0 002.717-1.573.395.395 0 01.544.133.402.402 0 01-.134.543 94.511 94.511 0 01-2.733 1.574.449.449 0 01-.174.055h-.023zm-164.936 1.518a.393.393 0 00.394.37h.024a.394.394 0 00.37-.417c-.047-.598-.047-1.211-.047-1.817v-1.283a.394.394 0 00-.378-.409.385.385 0 00-.41.378v1.314c0 .311.012.625.024.938.012.311.024.621.024.926zM171 169.682a.387.387 0 01-.347-.205.402.402 0 01.158-.535c.888-.472 1.731-.931 2.528-1.366l.237-.129a.395.395 0 01.621.344.394.394 0 01-.243.341c-.867.48-1.788.983-2.773 1.511a.375.375 0 01-.157.039H171zm-5.947 2.683a.386.386 0 00.355.22.365.365 0 00.173-.047 229.42 229.42 0 002.812-1.432.394.394 0 00-.362-.7c-.898.472-1.836.944-2.805 1.432a.393.393 0 00-.173.527zm-152.025 2.321a.394.394 0 01-.378-.291 28.666 28.666 0 01-.693-3.108.398.398 0 11.787-.126c.158 1.029.373 2.048.646 3.053a.392.392 0 01-.268.488l-.094-.016zm146.386.433a.377.377 0 00.354.22.404.404 0 00.165-.031l2.844-1.369a.394.394 0 10-.347-.709c-.913.449-1.859.905-2.835 1.362a.391.391 0 00-.181.527zm-5.372 2.848a.412.412 0 01-.363-.228.384.384 0 01.205-.519l.63-.284h.001c.757-.341 1.5-.675 2.228-1.015a.395.395 0 01.331.716c-.937.433-1.89.866-2.875 1.299a.353.353 0 01-.157.031zm-138.636 2.549a.384.384 0 01-.346-.204 27.504 27.504 0 01-1.378-2.872.396.396 0 11.732-.299c.387.958.834 1.891 1.34 2.793.1.192.03.428-.158.535a.403.403 0 01-.19.047zm126.633 2.163c.093.109.236.16.377.135v.008a.48.48 0 00.15-.024l2.93-1.196a.4.4 0 00.212-.519.393.393 0 00-.512-.212l-2.922 1.156a.4.4 0 00-.235.652zm-123.293 2.81a.41.41 0 00.3.134v.008a.394.394 0 00.29-.11.401.401 0 000-.559 26.765 26.765 0 01-1.937-2.416.394.394 0 10-.638.457 28.369 28.369 0 001.985 2.486zm111.839 1.629a.398.398 0 01-.126-.787c1.001-.338 1.993-.677 2.97-1.023.206-.068.43.04.504.244a.387.387 0 01-.236.496c-.985.346-1.977.692-2.986 1.031l-.126.039zm-106.9 2.73a.381.381 0 01-.236-.079 32.474 32.474 0 01-2.458-2.014.392.392 0 010-.558.386.386 0 01.551 0 31.44 31.44 0 002.403 1.967c.174.13.209.377.078.55a.402.402 0 01-.338.134zm94.511.732a.385.385 0 00.366.283h-.004c.043.005.086 0 .126-.016 1.016-.283 2.024-.582 3.025-.881a.385.385 0 00.267-.488.393.393 0 00-.488-.259l-3.017.873a.401.401 0 00-.275.488zm-89.376 2.526a.423.423 0 00.181.047v.016a.404.404 0 00.182-.787 40.45 40.45 0 01-2.71-1.519.384.384 0 00-.543.126.394.394 0 00.126.543 34.876 34.876 0 002.764 1.574zm77.521.889a.397.397 0 01-.086-.787c1.024-.236 2.04-.472 3.056-.724a.393.393 0 01.472.291.392.392 0 01-.291.48c-1.016.244-2.032.488-3.064.716l-.087.024zm-71.534 1.621a.381.381 0 01-.127 0 53.497 53.497 0 01-2.961-1.141.397.397 0 01-.205-.52.393.393 0 01.512-.204c.937.393 1.922.787 2.914 1.125a.4.4 0 11-.133.787v-.047zm58.837.535a.385.385 0 00.386.322h.071l3.104-.558a.394.394 0 00.153-.711.39.39 0 00-.295-.061l-3.096.551a.402.402 0 00-.323.457zm-52.78 1.227h-.095a71.479 71.479 0 01-3.064-.787.401.401 0 01-.268-.488.394.394 0 01.489-.267c.976.275 1.992.543 3.024.787a.384.384 0 01.292.472.394.394 0 01-.394.275l.016.008zm46.558-.26c.03.194.197.337.394.339l.023-.008 3.151-.464a.394.394 0 00.323-.457.386.386 0 00-.45-.322l-3.102.464a.393.393 0 00-.339.448zm-5.852 1.126a.395.395 0 01-.377-.57.393.393 0 01.33-.217c1.05-.116 2.1-.242 3.15-.378a.397.397 0 01.102.787l-3.15.37-.055.008zm-34.586.283h.039a.402.402 0 00.306-.639.397.397 0 00-.259-.156 69.192 69.192 0 01-3.087-.511.4.4 0 00-.454.525.399.399 0 00.304.261 106.7 106.7 0 003.15.52zm28.316.322a.393.393 0 110-.786c1.047-.087 2.087-.181 3.15-.284a.41.41 0 01.434.354.395.395 0 01-.355.433c-1.05.1-2.1.194-3.15.283h-.08zm-25.15.071c1.032.11 2.08.205 3.15.283h.087a.393.393 0 100-.786 108.282 108.282 0 01-3.15-.276.38.38 0 00-.434.346.393.393 0 00.347.433zm18.864.339a.387.387 0 01-.386-.37.395.395 0 01.37-.417c1.048-.047 2.096-.11 3.151-.181a.385.385 0 01.418.37.385.385 0 01-.362.417c-1.048.07-2.096.133-3.151.181h-.04zm-12.227.14a69.67 69.67 0 002.776.072h.007a.403.403 0 00.418-.393.395.395 0 00-.394-.394c-1.08-.016-2.127-.047-3.15-.086a.39.39 0 00-.41.377.4.4 0 00.378.409l.375.015zm5.532-.321a.401.401 0 00.394.393h.008l1.883-.039 1.268-.04a.393.393 0 00.386-.409.41.41 0 00-.41-.378l-1.268.04-1.875.039a.393.393 0 00-.386.394zm37.477-4.076c.04.181.2.312.386.315l.079-.008 3.087-.645a.386.386 0 00.3-.465.393.393 0 00-.465-.307l-3.08.646a.39.39 0 00-.307.464zm12.256-2.841a.397.397 0 00.43.348c.037.01.076.009.113-.001 1.024-.252 2.04-.514 3.049-.787a.408.408 0 00.187-.679.407.407 0 00-.392-.108l-3.041.787a.396.396 0 00-.346.44zm12.169-3.375a.378.378 0 00.37.275v.008a.314.314 0 00.118-.023 233.56 233.56 0 003.009-.952.393.393 0 00.252-.496.382.382 0 00-.496-.252l-.818.261c-.721.23-1.444.461-2.175.683a.396.396 0 00-.26.496zm12.303-3.745a.41.41 0 01-.37-.26.394.394 0 01.236-.504 191.06 191.06 0 002.01-.742l.003-.001h.001l.94-.35a.393.393 0 01.276.732c-.977.369-1.961.731-2.962 1.093a.263.263 0 01-.134.04v-.008zm11.374-4.824c.057.15.202.248.362.244a.337.337 0 00.15-.031l2.906-1.228a.395.395 0 10-.315-.723c-.702.327-1.418.62-2.144.917-.25.102-.502.205-.754.31a.394.394 0 00-.205.511z" fill="#D1D3D4"/><path d="M27.836 135.77a.385.385 0 01-.307-.15.4.4 0 01.07-.558c.426-.315.851-.63 1.284-.937a.393.393 0 11.45.646c-.426.299-.843.606-1.253.92a.391.391 0 01-.244.079zm176.639-47.013a.353.353 0 01-.267-.11.386.386 0 010-.55s.386-.41 1.055-1.15a.394.394 0 11.583.52c-.677.787-1.071 1.172-1.071 1.172a.387.387 0 01-.3.118z" fill="#D1D3D4"/><path fill-rule="evenodd" clip-rule="evenodd" d="M205.303 17.243h.07v-.024a.385.385 0 00.386-.299.4.4 0 00-.323-.456 28.377 28.377 0 00-3.197-.362.37.37 0 00-.418.37.397.397 0 00.098.285c.07.078.168.126.272.132 1.043.057 2.082.175 3.112.354zm6.135 1.85a.424.424 0 01-.165 0c-.949-.432-1.925-.8-2.922-1.102a.41.41 0 11.228-.787 23.82 23.82 0 013.025 1.133.387.387 0 01.189.519.386.386 0 01-.355.212v.024zm5.041 3.343c.074.06.166.093.26.095v-.024a.403.403 0 00.268-.102.401.401 0 000-.56 21.501 21.501 0 00-2.576-1.958.393.393 0 10-.425.66 20.496 20.496 0 012.473 1.89zm4.309 4.95a.402.402 0 01-.339-.182 21.96 21.96 0 00-1.811-2.533.392.392 0 01.055-.551.383.383 0 01.551.047c.684.821 1.31 1.689 1.875 2.597a.387.387 0 01-.331.598v.023zm2.253 5.483c.054.162.207.27.378.268v-.024a.37.37 0 00.126.008.394.394 0 00.244-.496c-.33-1.02-.717-2.02-1.158-2.997a.395.395 0 00-.717.33c.429.95.805 1.921 1.127 2.911zm1.803 6.437a.402.402 0 01-.394-.339 36.395 36.395 0 00-.575-3.084.404.404 0 01.788-.173c.228 1.007.425 2.07.583 3.147a.402.402 0 01-.331.449h-.071zm.118 5.909c.005.214.18.385.394.385h.008a.401.401 0 00.386-.401 59.9 59.9 0 00-.157-3.187.398.398 0 00-.695-.23.385.385 0 00-.093.285c.079 1.023.157 2.078.157 3.148zm.213 6.727h-.039a.394.394 0 01-.355-.425c0-.189.021-.374.041-.56.016-.141.031-.282.038-.424 0-.445.026-.888.052-1.324.017-.28.033-.558.043-.831a.386.386 0 01.401-.386.401.401 0 01.386.401c0 .545-.032 1.095-.064 1.657a43.36 43.36 0 00-.03.53c0 .252-.026.5-.053.749l-.026.259a.402.402 0 01-.394.354zm-1.441 6.2h.149a.402.402 0 00.363-.22 63.01 63.01 0 00.787-3.148.394.394 0 00-.772-.165 34.325 34.325 0 01-.787 3.037.401.401 0 00.26.496zm-2.174 5.917a.41.41 0 01-.166 0 .386.386 0 01-.189-.52 51.16 51.16 0 001.229-2.903.393.393 0 01.512-.228.4.4 0 01.228.511 50.2 50.2 0 01-1.252 2.943.41.41 0 01-.331.197h-.031zm-3.119 5.586a.352.352 0 00.197.055h.031a.394.394 0 00.307-.196 65.688 65.688 0 001.536-2.801.394.394 0 00-.701-.362 66.14 66.14 0 01-1.512 2.77.388.388 0 00-.043.297c.027.1.094.186.185.237zm-3.175 5.437a.385.385 0 01-.323-.613 90.89 90.89 0 001.725-2.652.403.403 0 01.544-.126c.182.118.235.36.118.543a92.412 92.412 0 01-1.733 2.675.394.394 0 01-.299.173h-.032zm-3.938 5.091a.45.45 0 00.236.079l.032.016a.384.384 0 00.283-.174c.623-.81 1.253-1.668 1.899-2.565a.395.395 0 10-.646-.456 92.853 92.853 0 01-1.875 2.541.401.401 0 00.071.559zm-3.962 4.941a.41.41 0 00.26.095c.13.013.257-.04.339-.142a99.032 99.032 0 002.024-2.463.382.382 0 00.085-.288.394.394 0 00-.699-.2c-.341.41-.67.815-.987 1.204-.358.44-.7.86-1.022 1.244a.386.386 0 000 .55z" fill="#D1D3D4"/><path d="M197.442 17.015a.395.395 0 11-.063-.787 14.285 14.285 0 011.575-.157.394.394 0 11.047.787c-.953.055-1.52.141-1.52.141l-.039.016z" fill="#D1D3D4"/><path d="M1.968 52.015a2.578 2.578 0 01.365-3.63l22.852-18.658a2.578 2.578 0 013.626.365l9.231 11.282a2.578 2.578 0 01-.365 3.63L14.825 63.662a2.578 2.578 0 01-3.626-.365L1.968 52.015z" fill="#fff"/><path fill-rule="evenodd" clip-rule="evenodd" d="M12.878 64.87h.244a2.364 2.364 0 001.513-.544L38.382 44.94a2.36 2.36 0 00.34-3.36l-9.973-12.188a2.363 2.363 0 00-3.363-.338L1.638 48.448a2.36 2.36 0 00-.338 3.36l10.003 12.196c.39.484.956.795 1.575.865zm13.004-35.211c.29-.228.648-.353 1.016-.354.487 0 .946.223 1.245.606l9.972 12.164a1.573 1.573 0 01-.229 2.25L14.154 63.72c-.33.267-.751.394-1.174.355a1.576 1.576 0 01-1.079-.583L1.93 51.312a1.644 1.644 0 01-.355-1.18c.035-.42.236-.808.56-1.078L25.882 29.66z" fill="#D1D3D4"/><path d="M1.182 50.368a.394.394 0 01-.394-.393.385.385 0 01.354-.425l19.794-1.715L26.56 28.8a.385.385 0 01.488-.267.393.393 0 01.26.488l-5.687 19.293a.386.386 0 01-.338.283L1.22 50.368h-.04z" fill="#D1D3D4"/><path d="M22.055 45.773a.394.394 0 110-.787L38.8 43.074a.402.402 0 01.433.347.393.393 0 01-.346.44l-16.762 1.912h-.07zM13.099 64.87a.317.317 0 01-.118 0 .386.386 0 01-.252-.496l5.206-16.012a.412.412 0 01.788.244l-5.207 16.012a.402.402 0 01-.417.251z" fill="#D1D3D4"/><path d="M214.901 105.88a2.071 2.071 0 012.722-1.076l21.775 9.431a2.07 2.07 0 011.076 2.725l-4.667 10.754a2.071 2.071 0 01-2.723 1.076l-21.774-9.431a2.071 2.071 0 01-1.077-2.724l4.668-10.755z" fill="#fff"/><path fill-rule="evenodd" clip-rule="evenodd" d="M233.374 129.326c.249.107.517.163.788.165.255-.008.506-.064.74-.165a1.98 1.98 0 001.095-1.062l5.041-11.59a1.973 1.973 0 000-1.527 1.996 1.996 0 00-1.063-1.101l-22.629-9.796a2.01 2.01 0 00-2.631 1.038l-5.033 11.606a2.027 2.027 0 000 1.534c.195.494.581.888 1.071 1.094l22.621 9.804zm-17.879-23.723c.191-.443.627-.73 1.11-.732.155.003.308.038.449.103l22.614 9.803c.298.125.532.367.646.669.122.295.122.626 0 .921l-5.041 11.613a1.186 1.186 0 01-.662.646 1.234 1.234 0 01-.929 0l-22.63-9.804a1.204 1.204 0 01-.63-1.574l5.073-11.645z" fill="#D1D3D4"/><path d="M224.742 118.617a.377.377 0 01-.331-.181l-8.664-13.675a.394.394 0 01.669-.417l8.491 13.447 15.635-2.998a.387.387 0 01.465.307.4.4 0 01-.315.464l-15.895 3.053h-.055z" fill="#D1D3D4"/><path d="M234.619 129.42a.401.401 0 01-.331-.173l-7.546-11.212a.394.394 0 01.406-.603.386.386 0 01.248.17l7.546 11.244a.402.402 0 01-.11.551.418.418 0 01-.213.023zm-24.512-10.598a.39.39 0 01-.321-.624.391.391 0 01.258-.155l13.39-2.188a.4.4 0 01.436.536.398.398 0 01-.31.251l-13.39 2.188-.063-.008z" fill="#D1D3D4"/><path d="M63.365 13.685a1.512 1.512 0 011.91-.96l16.47 5.455a1.512 1.512 0 01.96 1.912l-2.7 8.137a1.512 1.512 0 01-1.91.96l-16.47-5.454a1.512 1.512 0 01-.96-1.912l2.7-8.138z" fill="#fff"/><path fill-rule="evenodd" clip-rule="evenodd" d="M78.277 29.659a1.573 1.573 0 001.985-1l2.906-8.78a1.573 1.573 0 00-.992-1.983L65.06 12.231a1.576 1.576 0 00-1.977 1l-2.914 8.78a1.572 1.572 0 00.992 1.983l17.116 5.665zm.843-.747a.788.788 0 01-.599 0L61.43 23.286a.787.787 0 01-.457-.386.826.826 0 010-.598l2.915-8.78a.787.787 0 01.386-.45.789.789 0 01.598-.046l17.116 5.665a.787.787 0 01.449.393.786.786 0 010 .598l-2.922 8.773a.787.787 0 01-.394.457z" fill="#D1D3D4"/><path d="M71.322 22.436a.402.402 0 01-.315-.157L63.8 12.884a.393.393 0 01.622-.48l7.018 9.182 11.122-3.147a.395.395 0 01.488.275.393.393 0 01-.275.48L71.4 22.452l-.079-.016z" fill="#D1D3D4"/><path d="M79.215 29.659a.378.378 0 01-.308-.15l-6.222-7.695a.394.394 0 11.614-.495l6.223 7.703a.393.393 0 01-.308.637zM60.65 23.522a.397.397 0 11-.095-.787l9.594-2.455a.394.394 0 01.438.579.386.386 0 01-.242.176l-9.593 2.463-.102.024z" fill="#D1D3D4"/></svg>